<?xml version="1.0" standalone="no"?>
<!DOCTYPE svg PUBLIC "-//W3C//DTD SVG 20010904//EN"
 "http://www.w3.org/TR/2001/REC-SVG-20010904/DTD/svg10.dtd">
<svg version="1.0" xmlns="http://www.w3.org/2000/svg"
 width="600.000000pt" height="600.000000pt" viewBox="0 0 600.000000 600.000000"
 preserveAspectRatio="xMidYMid meet">
<metadata>
Created by potrace 1.11, written by Peter Selinger 2001-2013
</metadata>
<g transform="translate(0.000000,600.000000) scale(0.100000,-0.100000)"
fill="#000000" stroke="none">
<path d="M2750 5989 c-1003 -87 -1887 -661 -2378 -1544 -201 -361 -325 -778
-362 -1210 -48 -569 83 -1177 362 -1680 369 -665 965 -1161 1683 -1400 713
-237 1491 -198 2175 109 663 299 1207 843 1506 1506 421 938 331 2031 -239
2890 -307 463 -760 847 -1267 1076 -455 204 -988 296 -1480 253z m1458 -2711
l651 -1723 -501 -3 c-276 -1 -503 -1 -505 1 -2 2 -35 96 -73 208 -39 112 -77
223 -86 246 l-16 43 -678 0 -678 0 -16 -42 c-9 -24 -47 -135 -86 -247 -38
-112 -71 -206 -73 -208 -2 -2 -229 -2 -505 -1 l-501 3 639 1695 c351 932 643
1707 649 1723 l11 27 558 0 559 0 651 -1722z"/>
<path d="M2779 3478 c-118 -348 -215 -638 -217 -645 -3 -10 85 -13 432 -13
342 0 436 3 436 13 0 16 -421 1260 -430 1270 -4 4 -103 -277 -221 -625z"/>
</g>
</svg>
